<?xml version="1.0" encoding="utf-8"?>
<!-- Generator: Adobe Illustrator 24.0.3, SVG Export Plug-In . SVG Version: 6.00 Build 0)  -->
<svg version="1.1" id="Layer_1" xmlns="http://www.w3.org/2000/svg" xmlns:xlink="http://www.w3.org/1999/xlink" x="0px" y="0px"
	 viewBox="0 0 2000 1275" style="enable-background:new 0 0 2000 1275;" xml:space="preserve">
<style type="text/css">
	.st0{fill:#9ECBE1;}
	.st1{fill:#264B64;}
	.st2{fill:#D5E8F2;}
	.st3{fill:#FFFFFF;}
	.st4{fill:url(#SVGID_1_);}
	.st5{fill:#F5AD89;}
	.st6{fill:url(#SVGID_2_);}
	.st7{fill:url(#SVGID_3_);}
	.st8{fill:#461E29;}
	.st9{fill:url(#SVGID_4_);}
	.st10{fill:url(#SVGID_5_);}
	.st11{fill:#131115;}
	.st12{fill:#363B48;}
	.st13{fill:url(#SVGID_6_);}
	.st14{fill:url(#SVGID_7_);}
	.st15{fill:url(#SVGID_8_);}
	.st16{fill:url(#SVGID_9_);}
	.st17{fill:url(#SVGID_10_);}
	.st18{fill:url(#SVGID_11_);}
	.st19{fill:url(#SVGID_12_);}
	.st20{fill:url(#SVGID_13_);}
	.st21{fill:url(#SVGID_14_);}
	.st22{fill:url(#SVGID_15_);}
	.st23{fill:url(#SVGID_16_);}
	.st24{fill:#63077A;}
	.st25{fill:url(#SVGID_17_);}
	.st26{fill:url(#SVGID_18_);}
	.st27{fill:#373A50;}
	.st28{fill:#191534;}
	.st29{fill:url(#SVGID_19_);}
	.st30{fill:#FFFFFF;stroke:#000000;stroke-miterlimit:10;}
	.st31{fill:url(#SVGID_20_);}
	.st32{fill:url(#SVGID_21_);}
	.st33{fill:url(#SVGID_22_);}
	.st34{fill:#E5E5E5;}
	.st35{opacity:0.5;fill:#FFFFFF;}
	.st36{fill:none;stroke:#FFFFFF;stroke-miterlimit:10;}
	.st37{fill:url(#SVGID_23_);}
	.st38{fill:url(#SVGID_24_);}
	.st39{fill:url(#SVGID_25_);}
	.st40{fill:url(#SVGID_26_);}
	.st41{fill:url(#SVGID_27_);}
	.st42{fill:url(#SVGID_28_);}
	.st43{fill:none;stroke:#2D4B5C;stroke-width:6;stroke-miterlimit:10;}
	.st44{font-family:'Roboto-Medium';}
	.st45{font-size:39.6643px;}
</style>
<ellipse transform="matrix(0.1602 -0.9871 0.9871 0.1602 1051.2249 2257.4307)" class="st0" cx="1852.3" cy="510.9" rx="39.4" ry="39.4"/>
<rect x="1684.1" y="566" class="st1" width="15" height="54.4"/>
<rect x="1858" y="566" class="st1" width="15" height="54.4"/>
<g>
	<rect x="1754.5" y="441.5" class="st0" width="86" height="109"/>
	<rect x="1840.5" y="441.5" class="st2" width="23" height="109"/>
</g>
<rect x="644.5" y="179.4" class="st2" width="740.4" height="391.4"/>
<g>
	<rect x="186.1" y="215.8" class="st2" width="222.1" height="312"/>
	<path class="st1" d="M374.5,343.3c0,42.7-34.6,77.3-77.3,77.3c-42.7,0-77.3-34.6-77.3-77.3c0-42.7,34.6-77.3,77.3-77.3
		C339.9,266,374.5,300.6,374.5,343.3z"/>
	<path class="st3" d="M322.5,343.3c0,15-12.1,27.1-27.1,27.1c-15,0-27.1-12.1-27.1-27.1c0-15,12.1-27.1,27.1-27.1
		C310.4,316.2,322.5,328.4,322.5,343.3z"/>
	<path class="st3" d="M356.6,475.7c0,2.4-2,4.4-4.4,4.4H242.1c-2.4,0-4.4-2-4.4-4.4V470c0-2.4,2-4.4,4.4-4.4h110.2
		c2.4,0,4.4,2,4.4,4.4V475.7z"/>
</g>
<rect x="83.3" y="626.7" class="st2" width="434.5" height="550"/>
<linearGradient id="SVGID_1_" gradientUnits="userSpaceOnUse" x1="1143.8126" y1="603.3799" x2="1344.7812" y2="603.3799">
	<stop  offset="9.595919e-02" style="stop-color:#FDDC70"/>
	<stop  offset="0.2244" style="stop-color:#FDD76E"/>
	<stop  offset="0.3661" style="stop-color:#FDCA6A"/>
	<stop  offset="0.5142" style="stop-color:#FCB463"/>
	<stop  offset="0.6668" style="stop-color:#FC965A"/>
	<stop  offset="0.8228" style="stop-color:#FB6E4E"/>
	<stop  offset="0.9795" style="stop-color:#FA3F41"/>
	<stop  offset="1" style="stop-color:#FA3840"/>
</linearGradient>
<path class="st4" d="M1291.5,616.9c0,0-3.8,7.8-8.6,18.1l-75.9-67.1c0.1-2.4,0.1-10.7-3.9-17c-1.5-6.4-5.9-25.2-3.6-32.3
	c2.7-8.4-8.1-0.7-8.4,6.1c-0.2,3.9-1.1,9.6-1.8,13.9c-3.3-3-6.1-5.8-7.8-7.5l-21.2-29c0,0-13.8,8.4-16.2,18.2
	c-2.4,9.8,8.1,30.2,8.1,30.2l1.4,1.8l-0.1,0.1c0,0,21.2,31.5,34.2,31.8l85,120.7c0,0,28.4-4.6,36.9-20.6
	c10.9-12.7,34.9-51.4,34.9-51.4C1348.7,626.5,1295.6,610.5,1291.5,616.9z"/>
<g>
	<g>
		<g>
			<g>
				<path class="st5" d="M1448.4,1183.1c-6.7,0-12.4-5.1-13.1-11.9l-26.4-256.8c-0.7-7.3,4.5-13.7,11.8-14.5
					c7.2-0.8,13.7,4.5,14.5,11.8l26.4,256.8c0.7,7.3-4.5,13.7-11.8,14.5C1449.3,1183.1,1448.8,1183.1,1448.4,1183.1z"/>
			</g>
		</g>
		<g>
			<g>
				<path class="st5" d="M1615,1183.1c-5.6,0-10.7-3.5-12.5-9.1l-83.6-254.6c-2.3-6.9,1.5-14.4,8.4-16.7c6.9-2.3,14.4,1.5,16.7,8.4
					l83.6,254.6c2.3,6.9-1.5,14.4-8.4,16.7C1617.7,1182.9,1616.3,1183.1,1615,1183.1z"/>
			</g>
		</g>
		<g>
			<g>
				<path class="st5" d="M1229.6,1183.1c-1.4,0-2.7-0.2-4.1-0.7c-6.9-2.3-10.7-9.7-8.4-16.7l83.6-254.6c2.3-6.9,9.7-10.7,16.7-8.4
					c6.9,2.3,10.7,9.7,8.4,16.7l-83.6,254.6C1240.4,1179.6,1235.2,1183.1,1229.6,1183.1z"/>
			</g>
		</g>
		<g>
			<path class="st5" d="M1434.8,1039.5c-0.5,0-0.9-0.1-1.3-0.4l-124.2-114.4c-0.8-0.7-0.8-1.9-0.1-2.6c0.7-0.8,1.9-0.8,2.7-0.1
				l122.9,113.2L1540,919.7c0.7-0.8,1.9-0.8,2.7-0.1c0.8,0.7,0.8,1.9,0.1,2.7L1436.2,1039
				C1435.9,1039.4,1435.4,1039.5,1434.8,1039.5C1434.9,1039.5,1434.8,1039.5,1434.8,1039.5z"/>
		</g>
		<g>
			<path class="st5" d="M1568.5,1039.7c-0.4,0-0.8-0.1-1.1-0.4L1426,935.8l-151,100.8c-0.9,0.6-2,0.3-2.6-0.5
				c-0.6-0.9-0.3-2,0.5-2.6L1425,932c0.7-0.4,1.5-0.4,2.2,0l142.5,104.3c0.8,0.6,1,1.8,0.4,2.6
				C1569.6,1039.5,1569,1039.7,1568.5,1039.7z"/>
		</g>
		<g>
			<linearGradient id="SVGID_2_" gradientUnits="userSpaceOnUse" x1="1628.6478" y1="785.0148" x2="1349.3706" y2="773.5615">
				<stop  offset="0" style="stop-color:#FEB021"/>
				<stop  offset="1" style="stop-color:#FA3840"/>
			</linearGradient>
			<path class="st6" d="M1587.8,639c0,0,46.6,277.5-82.8,275c-129.5-2.5-249.2,0-249.2,0v-56.6l94.1-81.7l11.3-122L1587.8,639z"/>
		</g>
	</g>
</g>
<linearGradient id="SVGID_3_" gradientUnits="userSpaceOnUse" x1="1354.3395" y1="445.917" x2="1403.8878" y2="445.917">
	<stop  offset="0" style="stop-color:#73CFE9"/>
	<stop  offset="1" style="stop-color:#9ECBE1"/>
</linearGradient>
<path class="st7" d="M1403.9,454.1c0,13.7-11.1,24.8-24.8,24.8l0,0c-13.7,0-24.8-11.1-24.8-24.8v-16.4c0-13.7,11.1-24.8,24.8-24.8
	l0,0c13.7,0,24.8,11.1,24.8,24.8V454.1z"/>
<path class="st8" d="M1373.5,468.8c0,0-13.5,34,1.2,48.7c14.7,14.7,4.9-4,4.9-4"/>
<g>
	<linearGradient id="SVGID_4_" gradientUnits="userSpaceOnUse" x1="1168.2814" y1="1107.8903" x2="1224.2461" y2="1107.8903">
		<stop  offset="9.595919e-02" style="stop-color:#FDDC70"/>
		<stop  offset="0.2244" style="stop-color:#FDD76E"/>
		<stop  offset="0.3661" style="stop-color:#FDCA6A"/>
		<stop  offset="0.5142" style="stop-color:#FCB463"/>
		<stop  offset="0.6668" style="stop-color:#FC965A"/>
		<stop  offset="0.8228" style="stop-color:#FB6E4E"/>
		<stop  offset="0.9795" style="stop-color:#FA3F41"/>
		<stop  offset="1" style="stop-color:#FA3840"/>
	</linearGradient>
	<path class="st9" d="M1224.2,1078.8l-0.9,64.8l-55.1-15.9c0,0,22.5-26,17.2-55.5"/>
	<linearGradient id="SVGID_5_" gradientUnits="userSpaceOnUse" x1="1286.8223" y1="1110.8285" x2="1330.5959" y2="1110.8285">
		<stop  offset="9.595919e-02" style="stop-color:#FDDC70"/>
		<stop  offset="0.2244" style="stop-color:#FDD76E"/>
		<stop  offset="0.3661" style="stop-color:#FDCA6A"/>
		<stop  offset="0.5142" style="stop-color:#FCB463"/>
		<stop  offset="0.6668" style="stop-color:#FC965A"/>
		<stop  offset="0.8228" style="stop-color:#FB6E4E"/>
		<stop  offset="0.9795" style="stop-color:#FA3F41"/>
		<stop  offset="1" style="stop-color:#FA3840"/>
	</linearGradient>
	<path class="st10" d="M1330.6,1081.7l-0.9,64.8l-42.9-12.6c0,0,10.3-29.2,5-58.8"/>
	<path class="st11" d="M1318,807.8c0,0-170.1,31.3-183.7,52.6c-13.6,21.3,24,238.1,24,238.1l71.1,7.6c0,0,4.7-114.6-9.1-188.6
		c-1.7-9.2,215.5-35.1,215.5-35.1l7.3-109.1l-117.8,1.3L1318,807.8z"/>
	<path class="st12" d="M1406.9,809.2c0,0-107.4,41.1-124.6,67.8c-17.2,26.7-12.9,229.2-12.9,229.2l71.7,3.5l9.7-183.3l138.5-22.8
		c0,0,41.9-27,27-95.8l-12-32.9h-128.8L1406.9,809.2z"/>
	<path class="st11" d="M1224.5,1129.9l1.3,43.8l-136.7,2.8c0,0-8.7-6.7,8-12c16.6-5.3,66.7-32.3,77.9-47.8
		C1184.6,1140.5,1224.5,1129.9,1224.5,1129.9z"/>
	<path class="st11" d="M1330.4,1132.3l2.2,48.5l-97.5-2.4c0,0,0-9.5,14.3-18.2c14.3-8.7,41.8-40.9,41.8-40.9L1330.4,1132.3z"/>
</g>
<g>
	<linearGradient id="SVGID_6_" gradientUnits="userSpaceOnUse" x1="705.8201" y1="508.0051" x2="795.5036" y2="508.0051">
		<stop  offset="9.595919e-02" style="stop-color:#FDDC70"/>
		<stop  offset="0.2244" style="stop-color:#FDD76E"/>
		<stop  offset="0.3661" style="stop-color:#FDCA6A"/>
		<stop  offset="0.5142" style="stop-color:#FCB463"/>
		<stop  offset="0.6668" style="stop-color:#FC965A"/>
		<stop  offset="0.8228" style="stop-color:#FB6E4E"/>
		<stop  offset="0.9795" style="stop-color:#FA3F41"/>
		<stop  offset="1" style="stop-color:#FA3840"/>
	</linearGradient>
	<path class="st13" d="M795.5,498.3c0,0-23.3,6.8-25.7,19.2c-2.4,12.4-10.3,43.1-10.3,43.1l-53.7-38.6l52.8-66.4L795.5,498.3z"/>
	<linearGradient id="SVGID_7_" gradientUnits="userSpaceOnUse" x1="844.066" y1="479.4916" x2="771.7966" y2="446.2922">
		<stop  offset="9.595919e-02" style="stop-color:#FDDC70"/>
		<stop  offset="0.2244" style="stop-color:#FDD76E"/>
		<stop  offset="0.3661" style="stop-color:#FDCA6A"/>
		<stop  offset="0.5142" style="stop-color:#FCB463"/>
		<stop  offset="0.6668" style="stop-color:#FC965A"/>
		<stop  offset="0.8228" style="stop-color:#FB6E4E"/>
		<stop  offset="0.9795" style="stop-color:#FA3F41"/>
		<stop  offset="1" style="stop-color:#FA3840"/>
	</linearGradient>
	<path class="st14" d="M820,424c0,0-2.5,17.4-0.7,20.9c1.8,3.5,13.3,23.1,6.8,24.3c-6.5,1.2-5.9,2.6-5.9,2.6s-4.7,33.6-11.8,34.6
		c-7.1,1-65.7-34.4-59.4-49.6c6.3-15.1,13.8-49.6,14.2-50.7C763.5,404.9,820,424,820,424z"/>
	<path class="st8" d="M741.2,377.9c0,0-23.6,8-34.5,45.4c-10.9,37.5-28.2,56.4-28.2,56.4l88.1,38.2c0,0,9.6-94.9,21.7-93.5
		c12.1,1.5,37.8,2.7,37.8,2.7S820.9,351.9,741.2,377.9z"/>
	<g>
		<linearGradient id="SVGID_8_" gradientUnits="userSpaceOnUse" x1="759.5113" y1="444.4306" x2="804.9437" y2="444.4306">
			<stop  offset="0" style="stop-color:#FFFFFF"/>
			<stop  offset="1" style="stop-color:#9ECBE1"/>
		</linearGradient>
		<path class="st15" d="M804.9,452c0,12.5-10.2,22.7-22.7,22.7l0,0c-12.5,0-22.7-10.2-22.7-22.7v-15c0-12.5,10.2-22.7,22.7-22.7l0,0
			c12.5,0,22.7,10.2,22.7,22.7V452z"/>
		<linearGradient id="SVGID_9_" gradientUnits="userSpaceOnUse" x1="766.151" y1="444.4303" x2="798.304" y2="444.4303">
			<stop  offset="0" style="stop-color:#73CFE9"/>
			<stop  offset="1" style="stop-color:#9ECBE1"/>
		</linearGradient>
		<path class="st16" d="M798.3,449.8c0,8.9-7.2,16.1-16.1,16.1l0,0c-8.9,0-16.1-7.2-16.1-16.1v-10.6c0-8.9,7.2-16.1,16.1-16.1l0,0
			c8.9,0,16.1,7.2,16.1,16.1V449.8z"/>
		<path class="st3" d="M794.5,399.6h-19.7l-0.3,17c0,2.2,0,4.2,0.1,5.9c-1.7,2.3-2.7,5.1-2.7,8.2v9.2c0,7.6,6.2,13.9,13.9,13.9
			c7.6,0,13.9-6.2,13.9-13.9v-9.2c0-3.9-1.6-7.4-4.2-9.9C796.2,413.8,795.4,405.6,794.5,399.6z"/>
		<linearGradient id="SVGID_10_" gradientUnits="userSpaceOnUse" x1="750.7444" y1="383.2055" x2="799.6186" y2="383.2055">
			<stop  offset="0" style="stop-color:#FFFFFF"/>
			<stop  offset="1" style="stop-color:#9ECBE1"/>
		</linearGradient>
		<path class="st17" d="M769,366.8c-4.6,0-18.3,0.7-18.3,5.4c0,4.6,6.5,3.1,11.1,3.1c10.3,0,13,24.3,13,24.3h19.7
			C793.8,394.7,790.4,366.8,769,366.8z"/>
	</g>
</g>
<g>
	<linearGradient id="SVGID_11_" gradientUnits="userSpaceOnUse" x1="896.6103" y1="539.8912" x2="910.9657" y2="539.8912">
		<stop  offset="9.595919e-02" style="stop-color:#FDDC70"/>
		<stop  offset="0.2244" style="stop-color:#FDD76E"/>
		<stop  offset="0.3661" style="stop-color:#FDCA6A"/>
		<stop  offset="0.5142" style="stop-color:#FCB463"/>
		<stop  offset="0.6668" style="stop-color:#FC965A"/>
		<stop  offset="0.8228" style="stop-color:#FB6E4E"/>
		<stop  offset="0.9795" style="stop-color:#FA3F41"/>
		<stop  offset="1" style="stop-color:#FA3840"/>
	</linearGradient>
	<path class="st18" d="M896.6,557.9c0-1,6.4-24.6,3.8-32.5c-2.6-8,7.7-0.6,8,5.7c0.3,6.4,2.6,18.2,2.6,18.2"/>
	<linearGradient id="SVGID_12_" gradientUnits="userSpaceOnUse" x1="906.8285" y1="620.6519" x2="721.2684" y2="620.6519">
		<stop  offset="9.595919e-02" style="stop-color:#FDDC70"/>
		<stop  offset="0.2244" style="stop-color:#FDD76E"/>
		<stop  offset="0.3661" style="stop-color:#FDCA6A"/>
		<stop  offset="0.5142" style="stop-color:#FCB463"/>
		<stop  offset="0.6668" style="stop-color:#FC965A"/>
		<stop  offset="0.8228" style="stop-color:#FB6E4E"/>
		<stop  offset="0.9795" style="stop-color:#FA3F41"/>
		<stop  offset="1" style="stop-color:#FA3840"/>
	</linearGradient>
	<path class="st19" d="M902,564.3l-87.5,77.4c-11.3-23.5-37.1-76.1-47.6-90.3c-13.7-18.5-34.1-8.8-34.1-8.8l59.5,141.7l3.5-3.9
		c7,16.2,35.5,20.8,35.5,20.8l87.1-123.6L902,564.3z"/>
	<linearGradient id="SVGID_13_" gradientUnits="userSpaceOnUse" x1="893.3574" y1="550.5292" x2="950.7752" y2="550.5292">
		<stop  offset="9.595919e-02" style="stop-color:#FDDC70"/>
		<stop  offset="0.2244" style="stop-color:#FDD76E"/>
		<stop  offset="0.3661" style="stop-color:#FDCA6A"/>
		<stop  offset="0.5142" style="stop-color:#FCB463"/>
		<stop  offset="0.6668" style="stop-color:#FC965A"/>
		<stop  offset="0.8228" style="stop-color:#FB6E4E"/>
		<stop  offset="0.9795" style="stop-color:#FA3F41"/>
		<stop  offset="1" style="stop-color:#FA3840"/>
	</linearGradient>
	<path class="st20" d="M943.6,557.1c2.8-5.7,8.6-18.5,6.8-25.7c-2.3-9.5-16.1-17.6-16.1-17.6L919,535.6l0,0c0,0-8.9,9.6-17.9,16
		c-8.9,6.4-7.7,21.1-7.7,21.1l17.2,14.7c10,1.1,26-19.9,31.3-27.4l0.1,0.1c0,0,0.2-0.4,0.6-1.1c0.7-1,1.1-1.6,1.1-1.6L943.6,557.1z"
		/>
</g>
<g>
	<g>
		<g>
			<path class="st5" d="M715.6,1183.1c6.7,0,12.4-5.1,13.1-11.9l26.4-256.8c0.7-7.3-4.5-13.7-11.8-14.5c-7.2-0.8-13.7,4.5-14.5,11.8
				l-26.4,256.8c-0.7,7.3,4.5,13.7,11.8,14.5C714.7,1183.1,715.1,1183.1,715.6,1183.1z"/>
		</g>
	</g>
	<g>
		<g>
			<path class="st5" d="M549,1183.1c5.6,0,10.7-3.5,12.5-9.1l83.6-254.6c2.3-6.9-1.5-14.4-8.4-16.7c-6.9-2.3-14.4,1.5-16.7,8.4
				l-83.6,254.6c-2.3,6.9,1.5,14.4,8.4,16.7C546.2,1182.9,547.6,1183.1,549,1183.1z"/>
		</g>
	</g>
	<g>
		<g>
			<path class="st5" d="M934.3,1183.1c1.4,0,2.7-0.2,4.1-0.7c6.9-2.3,10.7-9.7,8.4-16.7l-83.6-254.6c-2.3-6.9-9.7-10.7-16.7-8.4
				c-6.9,2.3-10.7,9.7-8.4,16.7l83.6,254.6C923.6,1179.6,928.7,1183.1,934.3,1183.1z"/>
		</g>
	</g>
	<g>
		<path class="st5" d="M729.1,1039.5c0.5,0,0.9-0.1,1.3-0.4l124.2-114.4c0.8-0.7,0.8-1.9,0.1-2.6c-0.7-0.8-1.9-0.8-2.7-0.1
			l-122.9,113.2L623.9,919.7c-0.7-0.8-1.9-0.8-2.7-0.1c-0.8,0.7-0.8,1.9-0.1,2.7L727.7,1039C728.1,1039.4,728.5,1039.5,729.1,1039.5
			C729.1,1039.5,729.1,1039.5,729.1,1039.5z"/>
	</g>
	<g>
		<path class="st5" d="M595.5,1039.7c0.4,0,0.8-0.1,1.1-0.4L738,935.8l151,100.8c0.9,0.6,2,0.3,2.6-0.5c0.6-0.9,0.3-2-0.5-2.6
			L739,932c-0.7-0.4-1.5-0.4-2.2,0l-142.5,104.3c-0.8,0.6-1,1.8-0.4,2.6C594.3,1039.5,594.9,1039.7,595.5,1039.7z"/>
	</g>
	<g>
		<linearGradient id="SVGID_14_" gradientUnits="userSpaceOnUse" x1="560.8055" y1="775.6569" x2="907.863" y2="775.6569">
			<stop  offset="0" style="stop-color:#FEB021"/>
			<stop  offset="1" style="stop-color:#FA3840"/>
		</linearGradient>
		<path class="st21" d="M565.4,637.3c0,0-36.1,279.3,93.4,276.8c129.5-2.5,249.1,0,249.1,0v-56.6l-94-81.7l-11.2-122L565.4,637.3z"
			/>
	</g>
</g>
<g>
	<g>
		<path class="st12" d="M1047,1120.9c6.8-0.2,59.7,6.2,61.4,10.2s-25.3,25.2-38.8,29.1c-8,2.3-20.7-4.2-44.4-1.5
			c-33.5,3.8-20,11.5-27.3,15.9c-8,4.7-10.8,3.9-10.8,3.9l-14.4-23.3l-0.4-28.8"/>
	</g>
	<g>
		<linearGradient id="SVGID_15_" gradientUnits="userSpaceOnUse" x1="992.1715" y1="1049.7802" x2="919.4641" y2="912.2972">
			<stop  offset="9.595919e-02" style="stop-color:#FDDC70"/>
			<stop  offset="0.2244" style="stop-color:#FDD76E"/>
			<stop  offset="0.3661" style="stop-color:#FDCA6A"/>
			<stop  offset="0.5142" style="stop-color:#FCB463"/>
			<stop  offset="0.6668" style="stop-color:#FC965A"/>
			<stop  offset="0.8228" style="stop-color:#FB6E4E"/>
			<stop  offset="0.9795" style="stop-color:#FA3F41"/>
			<stop  offset="1" style="stop-color:#FA3840"/>
		</linearGradient>
		<path class="st22" d="M813.3,877.3l107.5,13.2c0,0-7.1,74.7,8.1,119.5c15.2,44.8,52.9,136.6,52.9,136.6l84.8-17.2
			c0,0-49.5-2.3-57.4-17.9c-23.2-45.7-9.2-237.3-32.7-254.8c-23.5-17.6-93-36.8-93-36.8L813.3,877.3z"/>
	</g>
</g>
<g>
	<g>
		<path class="st12" d="M761.5,1125.9c3.5,5.8,23.6,55.2,21,58.6c-2.6,3.4-34.3-9.9-44.3-19.8c-5.9-5.9-6.4-20.1-20.3-39.5
			c-19.6-27.4-19.8-11.8-27.1-16.2c-8-4.7-8.7-7.5-8.7-7.5l13.4-23.9l25-14.3"/>
	</g>
	<g>
		<g>
			<linearGradient id="SVGID_16_" gradientUnits="userSpaceOnUse" x1="845.5355" y1="1052.504" x2="786.9648" y2="804.9102">
				<stop  offset="9.595919e-02" style="stop-color:#FDDC70"/>
				<stop  offset="0.2244" style="stop-color:#FDD76E"/>
				<stop  offset="0.3661" style="stop-color:#FDCA6A"/>
				<stop  offset="0.5142" style="stop-color:#FCB463"/>
				<stop  offset="0.6668" style="stop-color:#FC965A"/>
				<stop  offset="0.8228" style="stop-color:#FB6E4E"/>
				<stop  offset="0.9795" style="stop-color:#FA3F41"/>
				<stop  offset="1" style="stop-color:#FA3840"/>
			</linearGradient>
			<path class="st23" d="M893.9,837.6c0,0,64.4,42.2,59.6,71.1c-4.8,28.9-171.6,137.2-201.5,178.8c-10.2,14.2,10.5,59.2,10.5,59.2
				l-54.3-67.4c0,0,64.1-75.7,96.9-109.8c32.8-34.1,57-61.5,57-61.5l-71-44.3"/>
		</g>
	</g>
</g>
<g>
	<path class="st12" d="M651.1,769.2c0,0-34.9,60,1.6,97.7c36.5,37.7,201.2,39,201.2,36.5c0-74.1,98.5-65.7,98.5-65.7
		s-112.7-70.2-204.8-68.2"/>
	<path class="st12" d="M837.9,907.8c9.7,0,16-0.3,17.1-0.8c1.4-0.6,2.5-2.1,2.5-3.6c0-17.2,5.6-31.1,16.8-41.3
		c26.9-24.7,77.2-20.7,77.7-20.7c1.7,0.2,3.3-0.9,3.9-2.6c0.6-1.7-0.1-3.5-1.6-4.4c-4.6-2.9-114.9-70.8-206.8-68.8
		c-2.1,0-3.7,1.8-3.7,3.9c0,2.1,1.7,3.7,3.8,3.7c0,0,0.1,0,0.1,0c72.2-1.7,158.7,42.7,190.3,60.4c-18.1,0.6-48.7,4.5-68.8,22.9
		c-12,11-18.5,25.7-19.1,43.7c-22,1.6-162.4-2.5-194.7-35.9c-34.1-35.3-1.4-92.7-1-93.2c1-1.8,0.4-4.1-1.4-5.2
		c-1.8-1-4.1-0.4-5.2,1.4c-1.5,2.6-35.9,63,2.1,102.3C680.5,901.1,794.2,907.8,837.9,907.8z"/>
</g>
<path class="st24" d="M705.5,506.8c-1.8-0.6-29.5,5.3-41.9,36.6c-12.4,31.3-39.5,265.5-39.5,265.5l155.8-38.3
	c0,0,1.7-109.2,11.8-121c10-11.8,3.5-23.6-10.6-60.2c-14.2-36.6-17.3-41.2-17.3-41.2L705.5,506.8z"/>
<linearGradient id="SVGID_17_" gradientUnits="userSpaceOnUse" x1="677.9313" y1="621.5363" x2="917.3124" y2="621.5363">
	<stop  offset="9.595919e-02" style="stop-color:#FDDC70"/>
	<stop  offset="0.2244" style="stop-color:#FDD76E"/>
	<stop  offset="0.3661" style="stop-color:#FDCA6A"/>
	<stop  offset="0.5142" style="stop-color:#FCB463"/>
	<stop  offset="0.6668" style="stop-color:#FC965A"/>
	<stop  offset="0.8228" style="stop-color:#FB6E4E"/>
	<stop  offset="0.9795" style="stop-color:#FA3F41"/>
	<stop  offset="1" style="stop-color:#FA3840"/>
</linearGradient>
<path class="st25" d="M700,541.2c13.9-1.8,28.7,6.8,34.2,34.4c5.5,27.5,16.7,87,16.7,87l119.1,14.9c0,0,26.4-4.7,32.3-2
	c5.9,2.8,14.9,14.2,14.9,14.2s0,14.2-13.4,11.8c-13.4-2.4-21.6-5.5-21.6-5.5s-141,12.8-158.3,1.4c-17.3-11.4-47.6-88.5-46-110.5
	C679.6,564.8,686.1,543,700,541.2z"/>
<linearGradient id="SVGID_18_" gradientUnits="userSpaceOnUse" x1="7953.1411" y1="686.8759" x2="8027.7295" y2="686.8759" gradientTransform="matrix(-1 0 0 1 8895.1309 0)">
	<stop  offset="9.595919e-02" style="stop-color:#FDDC70"/>
	<stop  offset="0.2244" style="stop-color:#FDD76E"/>
	<stop  offset="0.3661" style="stop-color:#FDCA6A"/>
	<stop  offset="0.5142" style="stop-color:#FCB463"/>
	<stop  offset="0.6668" style="stop-color:#FC965A"/>
	<stop  offset="0.8228" style="stop-color:#FB6E4E"/>
	<stop  offset="0.9795" style="stop-color:#FA3F41"/>
	<stop  offset="1" style="stop-color:#FA3840"/>
</linearGradient>
<path class="st26" d="M873.6,679.4l31-6.9l34.3,19.3c0,0,8.3,7.7-2.2,8.8c-10.6,1.1-54.3,0.7-55.4,0.3c-1.1-0.4-13.9-6.6-13.9-6.6"
	/>
<g>
	<path class="st27" d="M996.3,697.6c0,2.8-3,5-6.7,5l0,0c-3.7,0-6.7-2.2-6.7-5v-91.8c0-2.8,3-5,6.7-5l0,0c3.7,0,6.7,2.2,6.7,5V697.6
		z"/>
	<path class="st28" d="M938.9,704.3c-1.7,1.7-4.4,1.7-6.1,0l0,0c-1.7-1.7-1.7-4.4,0-6.1l56-56c1.7-1.7,4.4-1.7,6.1,0l0,0
		c1.7,1.7,1.7,4.4,0,6.1L938.9,704.3z"/>
	<path class="st28" d="M1041.9,704.3c1.7,1.7,4.4,1.7,6.1,0l0,0c1.7-1.7,1.7-4.4,0-6.1l-56-56c-1.7-1.7-4.4-1.7-6.1,0l0,0
		c-1.7,1.7-1.7,4.4,0,6.1L1041.9,704.3z"/>
	<path class="st28" d="M1004,645c0,2.7-2.2,4.9-4.9,4.9h-18.9c-2.7,0-4.9-2.2-4.9-4.9l0,0c0-2.7,2.2-4.9,4.9-4.9h18.9
		C1001.8,640.1,1004,642.3,1004,645L1004,645z"/>
	<g>
		
			<rect x="1032.9" y="593.3" transform="matrix(0.7182 -0.6958 0.6958 0.7182 -131.5724 894.8825)" class="st28" width="12.4" height="33.2"/>
		
			<rect x="1006.4" y="559.5" transform="matrix(0.7182 -0.6959 0.6959 0.7182 -121.8513 872.8373)" class="st27" width="20.5" height="54.7"/>
		<path class="st28" d="M1010.3,553.5c7.2,7.4,7,19.2-0.4,26.4l0,0c-7.4,7.2-19.2,7-26.4-0.4l-23.8-24.6c-7.2-7.4-7-19.2,0.4-26.4
			l0,0c7.4-7.2,19.2-7,26.4,0.4L1010.3,553.5z"/>
	</g>
	<polygon class="st27" points="988.2,601.1 1009.8,589.9 1030.3,611.8 1013.8,623.6 992.7,615.6 	"/>
</g>
<linearGradient id="SVGID_19_" gradientUnits="userSpaceOnUse" x1="591.9416" y1="842.797" x2="781.3279" y2="842.797">
	<stop  offset="0" style="stop-color:#FEB021"/>
	<stop  offset="1" style="stop-color:#FA3840"/>
</linearGradient>
<path class="st29" d="M591.9,774.7h138.9c0,0,50.4-4.4,50.4,44.2c0,48.7,0,92,0,92s-168.1-4.4-175.2-66.4
	C599,782.7,591.9,774.7,591.9,774.7z"/>
<g>
	<polyline class="st1" points="1430.1,533.6 1510.6,548.4 1524.9,631.4 1499.4,649.8 1520.3,849.9 1313.6,809.3 1332.9,632.9 
		1287.3,618.4 1334.6,542 1398.8,529.1 	"/>
</g>
<g>
	<path class="st30" d="M1466.2,414.5"/>
</g>
<linearGradient id="SVGID_20_" gradientUnits="userSpaceOnUse" x1="1350.1896" y1="702.4356" x2="1505.453" y2="613.2273">
	<stop  offset="9.595919e-02" style="stop-color:#FDDC70"/>
	<stop  offset="0.2244" style="stop-color:#FDD76E"/>
	<stop  offset="0.3661" style="stop-color:#FDCA6A"/>
	<stop  offset="0.5142" style="stop-color:#FCB463"/>
	<stop  offset="0.6668" style="stop-color:#FC965A"/>
	<stop  offset="0.8228" style="stop-color:#FB6E4E"/>
	<stop  offset="0.9795" style="stop-color:#FA3F41"/>
	<stop  offset="1" style="stop-color:#FA3840"/>
</linearGradient>
<path class="st31" d="M1521.1,629.3c0,0-44.7,20.6-44.7,22.5l-0.9,32.7l-68.6-60.7c0.1-2.4,0.1-10.7-3.9-17
	c-1.5-6.4-5.9-25.2-3.6-32.3c2.7-8.4-8.1-0.7-8.4,6.1c-0.2,3.9-1.1,9.6-1.8,13.9c-3.2-2.9-6-5.6-7.6-7.3l-19.4-28.3
	c0,0-15.8,7.5-18.2,17.3c-2.4,9.8,7.4,29.8,7.4,29.8l5,6.5l0,0c6.3,8.6,21.2,27.4,31.2,27.6l85,120.7c0,0,50.6-5.5,43.8-33.8
	c3.1,1.1,0.2-0.7,1.5-2.4C1525.4,715.3,1522.1,666.2,1521.1,629.3z"/>
<g>
	<path class="st1" d="M652.7,431.8h21.4c8.3,0,14.7-7.4,14.7-15.8v-73.8c0-8.3-6.4-15.7-14.7-15.7H486.4c-8.3,0-16.6,7.3-16.6,15.7
		v73.8c0,8.3,8.3,15.8,16.6,15.8h125.4c13.5,19.3,38.8,27.5,58.4,27.5C670.8,459.3,650.1,446.9,652.7,431.8z"/>
	<g>
		<path class="st3" d="M541.5,377.4c0,5.5-4.5,10-10,10c-5.5,0-10-4.5-10-10c0-5.5,4.5-10,10-10C537,367.4,541.5,371.9,541.5,377.4z
			"/>
		<path class="st3" d="M586,377.4c0,5.5-4.5,10-10,10c-5.5,0-10-4.5-10-10c0-5.5,4.5-10,10-10C581.5,367.4,586,371.9,586,377.4z"/>
		<path class="st3" d="M630.5,377.4c0,5.5-4.5,10-10,10c-5.5,0-10-4.5-10-10c0-5.5,4.5-10,10-10C626,367.4,630.5,371.9,630.5,377.4z
			"/>
	</g>
</g>
<g>
	<path class="st0" d="M1518.4,456.5h-8.5c-3.3,0-6.1-3.4-6.1-6.7v-29.4c0-3.3,2.8-5.7,6.1-5.7h74.8c3.3,0,7.1,2.4,7.1,5.7v29.4
		c0,3.3-3.8,6.7-7.1,6.7h-50c-13.5,0-1.5,11.6-20,13.6C1514.5,470.2,1517.1,459.8,1518.4,456.5z"/>
	<g>
		<path class="st3" d="M1562.7,434.4c0,2.2,1.8,4,4,4c2.2,0,4-1.8,4-4c0-2.2-1.8-4-4-4C1564.5,430.4,1562.7,432.2,1562.7,434.4z"/>
		<path class="st3" d="M1545,434.4c0,2.2,1.8,4,4,4c2.2,0,4-1.8,4-4c0-2.2-1.8-4-4-4C1546.7,430.4,1545,432.2,1545,434.4z"/>
		<path class="st3" d="M1527.2,434.4c0,2.2,1.8,4,4,4s4-1.8,4-4c0-2.2-1.8-4-4-4S1527.2,432.2,1527.2,434.4z"/>
	</g>
</g>
<g>
	
		<ellipse transform="matrix(0.5969 -0.8023 0.8023 0.5969 464.7072 1361.0157)" class="st3" cx="1586.9" cy="218" rx="84.9" ry="84.9"/>
	<g>
		<rect x="1583.9" y="125.5" class="st2" width="6" height="32.9"/>
		<rect x="1583.9" y="277.6" class="st2" width="6" height="33"/>
	</g>
	<g>
		<rect x="1646.5" y="215" class="st2" width="32.9" height="6"/>
		<rect x="1494.3" y="215" class="st2" width="32.9" height="6"/>
	</g>
	<path class="st0" d="M1586.9,112.3c-58.4,0-105.7,47.3-105.7,105.7c0,58.4,47.3,105.7,105.7,105.7c58.4,0,105.7-47.3,105.7-105.7
		C1692.6,159.7,1645.2,112.3,1586.9,112.3z M1586.9,302.9c-46.9,0-84.9-38-84.9-84.9c0-46.9,38-84.9,84.9-84.9
		c46.9,0,84.9,38,84.9,84.9C1671.7,264.9,1633.7,302.9,1586.9,302.9z"/>
	<g>
		<polygon class="st8" points="1604.5,246.2 1584.3,218.9 1584.3,174.2 1589.5,174.2 1589.5,217.2 1608.7,243.1 		"/>
	</g>
	<g>
		<linearGradient id="SVGID_21_" gradientUnits="userSpaceOnUse" x1="1563.3887" y1="232.6759" x2="1589.8552" y2="232.6759">
			<stop  offset="0.1047" style="stop-color:#FC6F3D"/>
			<stop  offset="0.9543" style="stop-color:#F7426E"/>
		</linearGradient>
		<path class="st32" d="M1565.3,249.3c-0.4,0-0.8-0.1-1.2-0.4c-0.9-0.7-1-1.9-0.4-2.7l22.6-29.3c0.7-0.9,1.9-1,2.7-0.4
			c0.9,0.7,1,1.9,0.4,2.7l-22.6,29.3C1566.5,249,1565.9,249.3,1565.3,249.3z"/>
	</g>
</g>
<g>
	<g>
		<path class="st28" d="M1164.4,694.2c0,5,3.9,9.3,9.5,9.3H1360c5.5,0,10.6-4.3,10.6-9.3v-0.5c0-5-5.1-8.4-10.6-8.4h-186.1
			c-5.5,0-9.5,3.4-9.5,8.4V694.2z"/>
		<path class="st3" d="M1156.3,665.6c2.6,12.4,14.8,22.8,27.3,22.8h127.7c8,0,5-10.4,2.4-22.8l-17.8-83.1
			c-2.6-12.4-14.8-21.8-27.3-21.8h-112.4c-12.4,0-20.3,9.4-17.7,21.8L1156.3,665.6z"/>
		<linearGradient id="SVGID_22_" gradientUnits="userSpaceOnUse" x1="1127.1849" y1="625.6259" x2="1307.4783" y2="625.6259">
			<stop  offset="0" style="stop-color:#CCCCCC"/>
			<stop  offset="1" style="stop-color:#808080"/>
		</linearGradient>
		<path class="st33" d="M1145.5,666.6c2.6,12.4,14.8,22.9,27.3,22.9h112.4c6.8,0,22-0.5,22.3-0.5c0,0-3.4-16.9-4.6-22.4l-17.8-83.1
			c-2.6-12.4-14.8-21.7-27.3-21.7h-112.4c-12.4,0-20.3,9.4-17.7,21.8L1145.5,666.6z"/>
	</g>
	<path class="st34" d="M1194.9,624.5c0,8.8,7.1,16,16,16c8.8,0,16-7.1,16-16c0-8.8-7.1-16-16-16
		C1202,608.6,1194.9,615.7,1194.9,624.5z"/>
</g>
<g>
	<path class="st35" d="M1797.9,1074.7c0,0-56.3-282.4-5-263.3c51.3,19.1,58.3,237.2,35.2,268.3"/>
	<path class="st2" d="M1797.9,1074.7c0,0-56.3-282.4-5-263.3c51.3,19.1,58.3,237.2,35.2,268.3"/>
	<path class="st2" d="M1792.5,1085.1c0,0-10-115.3-65.2-109.3c-55.2,6,25.1,100.3,39.1,109.3"/>
	<polygon class="st2" points="1845.9,1176.6 1776.1,1176.6 1771,1088.3 1851,1088.3 	"/>
	<path class="st1" d="M1728.3,928.6c0,0-15,45.1,25.1,37.1c40.1-8,28.5-9.5,28.5-9.5"/>
	<path class="st0" d="M1804.5,1084c0,0-13-172.5-32.1-179.5c-19-7-51.1,8-44.1,24.1c7,16,54.2,156.4,54.2,156.4"/>
	<path class="st1" d="M1908.2,894.8c0,0,10.8,54.3-10,72.4c-20.9,18.1-36.7-15.1-36.7-15.1l-3.3-59.3"/>
	<path class="st0" d="M1806.6,1080.7c0,0,14.1-229.1,63.3-215.1c49.2,14.1,40.2,41.2,40.2,41.2s-12.1-11.1-19.1,3
		c-7,14.1-43.2,174.9-43.2,174.9"/>
	<path class="st2" d="M1837.2,1081.1c0,0,20.1-114,74.5-103.1c54.4,10.8-33.8,97.7-48.6,105.4"/>
	<path class="st36" d="M1791.9,825.4c0,0,26.4,164.8,17.4,255.2"/>
	<path class="st36" d="M1745.3,913.9c0,0,42.5,119.6,45.5,160.8"/>
	<path class="st36" d="M1726.6,991.2c0,0,40.2,60.3,46.2,86.4"/>
	<path class="st36" d="M1880.3,881.7c0,0-41.2,123.6-52.3,191"/>
	<g>
		<path class="st36" d="M1847.6,1080l-1-0.5c22.9-40.8,55-83.1,55.3-83.5l0.9,0.7C1902.5,997,1870.5,1039.3,1847.6,1080z"/>
	</g>
	<rect x="1755.9" y="1078.6" class="st1" width="110.3" height="24.7"/>
</g>
<g>
	<path class="st27" d="M1222.6,442.2l-3.3,18.6c-0.7,3.8,1.9,7.5,5.7,8.2l60.1,10.6l5.7-32.5l-60.1-10.6
		C1226.9,435.8,1223.3,438.4,1222.6,442.2"/>
	<path class="st28" d="M1329.3,464.8l-2,11.4c-1.6,9.3-10.6,15.6-19.9,13.9l-25.7-4.5c-4.4-0.8-7.4-5-6.6-9.4l5.2-29.2
		c0.8-4.4,5-7.4,9.4-6.6l25.7,4.5C1324.7,446.5,1330.9,455.4,1329.3,464.8"/>
	<path class="st28" d="M1258.7,447.5c-5.8,0-10.5,4.7-10.5,10.5c0,5.8,4.7,10.5,10.5,10.5c5.8,0,10.5-4.7,10.5-10.5
		C1269.2,452.2,1264.5,447.5,1258.7,447.5"/>
	<rect x="1255.1" y="352.2" class="st27" width="7" height="74.4"/>
	<path class="st28" d="M1259.1,414.6L1259.1,414.6c3.5,0,6.4,2.9,6.4,6.4v38.4h-12.8V421C1252.7,417.5,1255.6,414.6,1259.1,414.6"/>
	<polygon class="st28" points="1091.2,459 1088,454.6 1251.6,337.2 1254.8,341.6 	"/>
	<polygon class="st28" points="1099.6,471.4 1096.3,467 1258.5,345.6 1261.7,349.9 	"/>
	<path class="st28" d="M1268.3,344.4c0,7.1-5.8,12.9-12.9,12.9c-7.1,0-12.9-5.8-12.9-12.9c0-7.1,5.8-12.9,12.9-12.9
		C1262.5,331.5,1268.3,337.2,1268.3,344.4"/>
	<rect x="1086.3" y="469.2" class="st28" width="5.5" height="244"/>
	<rect x="1097.9" y="469.2" class="st28" width="5.5" height="244"/>
	<path class="st27" d="M1099.9,478.4h-19.7v-31.8h19.7c8.8,0,15.9,7.1,15.9,15.9C1115.8,471.2,1108.6,478.4,1099.9,478.4"/>
	
		<rect x="1097.3" y="421.3" transform="matrix(0.8774 -0.4798 0.4798 0.8774 -62.1702 602.4448)" class="st28" width="100.4" height="3"/>
	<rect x="1065.6" y="662.8" class="st28" width="58.6" height="41"/>
</g>
<g>
	<g>
		<path class="st8" d="M1372.9,432c-14-14-29.3-52.9,3.2-61.4c13.4-3.5,35.7,8.6,35.7,8.6s11.1-5.3,13-3.6
			c1.9,1.7,10.3,8.1,10.3,8.1l16.4,12.8"/>
	</g>
	<g>
		<linearGradient id="SVGID_23_" gradientUnits="userSpaceOnUse" x1="1383.1166" y1="517.8704" x2="1438.6954" y2="517.8704">
			<stop  offset="9.595919e-02" style="stop-color:#FDDC70"/>
			<stop  offset="0.2244" style="stop-color:#FDD76E"/>
			<stop  offset="0.3661" style="stop-color:#FDCA6A"/>
			<stop  offset="0.5142" style="stop-color:#FCB463"/>
			<stop  offset="0.6668" style="stop-color:#FC965A"/>
			<stop  offset="0.8228" style="stop-color:#FB6E4E"/>
			<stop  offset="0.9795" style="stop-color:#FA3F41"/>
			<stop  offset="1" style="stop-color:#FA3840"/>
		</linearGradient>
		<path class="st37" d="M1436.1,476.3l2.6,58.8c0,0-15.4,25.8-32.5,24.3c-19.1-1.7-23-20-23-20l10.2-27.8"/>
	</g>
	<g>
		<g>
			<path class="st8" d="M1377.5,446.2c5.8,22.8,47,66.1,63.3,49.1c3.5-3.6,23.6-44.8,23.9-47.8c2-23.5,11.7-62.1-46.7-59.2
				C1382.7,390.2,1371.7,423.4,1377.5,446.2z"/>
		</g>
		<g>
			<linearGradient id="SVGID_24_" gradientUnits="userSpaceOnUse" x1="1371.0103" y1="467.0586" x2="1446.3674" y2="467.0586">
				<stop  offset="9.595919e-02" style="stop-color:#FDDC70"/>
				<stop  offset="0.2244" style="stop-color:#FDD76E"/>
				<stop  offset="0.3661" style="stop-color:#FDCA6A"/>
				<stop  offset="0.5142" style="stop-color:#FCB463"/>
				<stop  offset="0.6668" style="stop-color:#FC965A"/>
				<stop  offset="0.8228" style="stop-color:#FB6E4E"/>
				<stop  offset="0.9795" style="stop-color:#FA3F41"/>
				<stop  offset="1" style="stop-color:#FA3840"/>
			</linearGradient>
			<path class="st38" d="M1374.2,419.7c0,0-14.1,95.9,17.4,94.7c31.5-1.2,37.8-35.6,37.8-35.6s10.3,1.9,15-10.8
				c4.7-12.8-0.4-18.1-0.4-18.1l-14.5,9l5.5-33.9L1374.2,419.7z"/>
		</g>
	</g>
	<g>
		<path class="st30" d="M1383.1,407.1"/>
	</g>
	<path class="st8" d="M1432.7,445.3c0,0-19.5,48.6-29.6,50.3c-10.1,1.7-31.3-1.4-31.3-1.4s-8.4,28.5,16.4,29.6
		c24.7,1,46.1-29.2,47.9-69.3"/>
	<g>
		<linearGradient id="SVGID_25_" gradientUnits="userSpaceOnUse" x1="1419.8533" y1="453.5558" x2="1469.4017" y2="453.5558">
			<stop  offset="0" style="stop-color:#FFFFFF"/>
			<stop  offset="1" style="stop-color:#9ECBE1"/>
		</linearGradient>
		<path class="st39" d="M1469.4,461.8c0,13.7-11.1,24.8-24.8,24.8l0,0c-13.7,0-24.8-11.1-24.8-24.8v-16.4
			c0-13.7,11.1-24.8,24.8-24.8l0,0c13.7,0,24.8,11.1,24.8,24.8V461.8z"/>
		<linearGradient id="SVGID_26_" gradientUnits="userSpaceOnUse" x1="1427.0936" y1="453.5558" x2="1462.1613" y2="453.5558">
			<stop  offset="0" style="stop-color:#73CFE9"/>
			<stop  offset="1" style="stop-color:#9ECBE1"/>
		</linearGradient>
		<path class="st40" d="M1462.2,459.4c0,9.7-7.8,17.5-17.5,17.5l0,0c-9.7,0-17.5-7.9-17.5-17.5v-11.6c0-9.7,7.8-17.5,17.5-17.5l0,0
			c9.7,0,17.5,7.8,17.5,17.5V459.4z"/>
		<path class="st3" d="M1458,404.6h-21.4l-0.3,18.5c0,2.4,0,4.5,0.1,6.4c-1.9,2.5-3,5.6-3,9v10c0,8.3,6.8,15.1,15.1,15.1
			c8.3,0,15.1-6.8,15.1-15.1v-10c0-4.2-1.7-8.1-4.6-10.8C1459.9,420.1,1459,411.2,1458,404.6z"/>
		<linearGradient id="SVGID_27_" gradientUnits="userSpaceOnUse" x1="1410.2906" y1="386.7824" x2="1463.5945" y2="386.7824">
			<stop  offset="0" style="stop-color:#FFFFFF"/>
			<stop  offset="1" style="stop-color:#9ECBE1"/>
		</linearGradient>
		<path class="st41" d="M1430.2,368.9c-5.1,0-19.9,0.8-19.9,5.8c0,5.1,7,3.4,12.1,3.4c11.2,0,14.2,26.5,14.2,26.5h21.4
			C1457.3,399.3,1453.5,368.9,1430.2,368.9z"/>
	</g>
</g>
<path class="st8" d="M437.4,1169.3c-2.4,6.1-9.3,9.1-15.4,6.8l0,0c-6.1-2.4-9.1-9.3-6.8-15.4l147-442.1c2.4-6.1,9.3-9.1,15.4-6.8
	l0,0c6.1,2.4,9.1,9.3,6.8,15.4L437.4,1169.3z"/>
<linearGradient id="SVGID_28_" gradientUnits="userSpaceOnUse" x1="6646.167" y1="851.2959" x2="6850.5806" y2="851.2959" gradientTransform="matrix(-1 0 0 1 8241.0195 0)">
	<stop  offset="0" style="stop-color:#FEB021"/>
	<stop  offset="1" style="stop-color:#FA3840"/>
</linearGradient>
<path class="st42" d="M1594.9,780.6l-154,0.5c0,0-50.4-4.4-50.4,44.2c0,48.7,0,92,0,92s169.7,27.7,186.8-54
	C1593.1,814.7,1594.9,780.6,1594.9,780.6z"/>
<path class="st8" d="M1640.4,719.3c0,9.8-7.9,17.7-17.7,17.7H498.6c-9.8,0-17.7-7.9-17.7-17.7l0,0c0-9.8,7.9-17.7,17.7-17.7h1124.2
	C1632.5,701.6,1640.4,709.5,1640.4,719.3L1640.4,719.3z"/>
<path class="st8" d="M1690.4,1169.3c2.4,6.1,9.3,9.1,15.4,6.8l0,0c6.1-2.4,9.1-9.3,6.8-15.4l-147-442.1c-2.4-6.1-9.3-9.1-15.4-6.8
	l0,0c-6.1,2.4-9.1,9.3-6.8,15.4L1690.4,1169.3z"/>
<g>
	<rect x="112.4" y="650.7" class="st0" width="294.8" height="83.3"/>
	<rect x="112.4" y="765.3" class="st0" width="294.8" height="83.3"/>
	<rect x="112.4" y="879.8" class="st0" width="294.8" height="83.3"/>
	<rect x="112.4" y="994.4" class="st0" width="294.8" height="83.3"/>
</g>
<rect x="898.2" y="70.9" class="st43" width="233.1" height="82.1"/>
<rect x="905.6" y="78.3" class="st1" width="218.3" height="67.3"/>
<text transform="matrix(1 0 0 1 950.5254 125.0898)" class="st3 st44 st45">ON AIR</text>
<polyline class="st1" points="1725.2,549.6 1823.3,549.6 1775.3,443.7 1726.6,443.7 "/>
<rect x="1795.2" y="433.5" transform="matrix(0.9064 -0.4225 0.4225 0.9064 -39.2748 809.3965)" class="st3" width="22.5" height="119.7"/>
<g>
	<rect x="1668" y="430.2" class="st0" width="86" height="120.8"/>
	<rect x="1754" y="430.2" class="st2" width="23" height="120.8"/>
</g>
<rect x="1645.7" y="548.6" class="st2" width="266.5" height="30.3"/>
<path class="st1" d="M1750.5,1187.5c0,3-2.4,5.4-5.4,5.4H341.8c-3,0-5.4-2.4-5.4-5.4v-5.4c0-3,2.4-5.4,5.4-5.4h1403.3
	c3,0,5.4,2.4,5.4,5.4V1187.5z"/>
</svg>
