<svg width="29" height="13" viewBox="0 0 29 13" fill="none" xmlns="http://www.w3.org/2000/svg">
<path d="M8.53763 12L7.70563 9.536H3.54563L2.71363 12H0.345625L4.56963 0.624H6.64963L10.9056 12H8.53763ZM4.12163 7.776H7.12963L5.60963 3.28L4.12163 7.776ZM11.4967 7.712C11.4967 5.056 12.7768 3.392 14.8248 3.392C15.6727 3.392 16.3608 3.712 16.9048 4.336V-9.53674e-07H19.0648V12H17.1128L17.0008 11.088C16.4568 11.808 15.7208 12.16 14.8088 12.16C12.8088 12.16 11.4967 10.48 11.4967 7.712ZM13.6728 7.872C13.6728 9.536 14.2648 10.448 15.3528 10.448C16.0728 10.448 16.5848 10.144 16.9048 9.52V6.032C16.5848 5.408 16.0728 5.104 15.3688 5.104C14.3288 5.104 13.7208 5.936 13.6728 7.488V7.872ZM20.5124 7.712C20.5124 5.056 21.7924 3.392 23.8404 3.392C24.6884 3.392 25.3764 3.712 25.9204 4.336V-9.53674e-07H28.0804V12H26.1284L26.0164 11.088C25.4724 11.808 24.7364 12.16 23.8244 12.16C21.8244 12.16 20.5124 10.48 20.5124 7.712ZM22.6884 7.872C22.6884 9.536 23.2804 10.448 24.3684 10.448C25.0884 10.448 25.6004 10.144 25.9204 9.52V6.032C25.6004 5.408 25.0884 5.104 24.3844 5.104C23.3444 5.104 22.7364 5.936 22.6884 7.488V7.872Z" fill="#A6AAAD"/>
</svg>
