<svg width="20" height="20" viewBox="0 0 20 20" fill="none" xmlns="http://www.w3.org/2000/svg">
<path d="M4.10223 9.99941C4.10223 9.76513 4.1953 9.54044 4.36096 9.37478C4.52663 9.20912 4.75131 9.11605 4.9856 9.11605H9.09971V5.00194C9.09971 4.76766 9.19278 4.54297 9.35844 4.37731C9.5241 4.21164 9.74879 4.11858 9.98307 4.11858C10.2174 4.11858 10.442 4.21164 10.6077 4.37731C10.7734 4.54297 10.8664 4.76766 10.8664 5.00194V9.11605H14.9805C15.2148 9.11605 15.4395 9.20912 15.6052 9.37478C15.7708 9.54044 15.8639 9.76513 15.8639 9.99941C15.8639 10.2337 15.7708 10.4584 15.6052 10.624C15.4395 10.7897 15.2148 10.8828 14.9805 10.8828H10.8664V14.9969C10.8664 15.2312 10.7734 15.4559 10.6077 15.6215C10.442 15.7872 10.2174 15.8802 9.98307 15.8802C9.74879 15.8802 9.5241 15.7872 9.35844 15.6215C9.19278 15.4559 9.09971 15.2312 9.09971 14.9969V10.8828H4.9856C4.75131 10.8828 4.52663 10.7897 4.36096 10.624C4.1953 10.4584 4.10223 10.2337 4.10223 9.99941Z" fill="#A6AAAD"/>
<path fill-rule="evenodd" clip-rule="evenodd" d="M4.46736 0.304797C8.13327 -0.101599 11.8329 -0.101599 15.4988 0.304797C17.6507 0.545072 19.3879 2.23995 19.64 4.4036C20.0758 8.12197 20.0758 11.878 19.64 15.5964C19.3868 17.76 17.6495 19.4537 15.4988 19.6952C11.8329 20.1016 8.13327 20.1016 4.46736 19.6952C2.31549 19.4537 0.57821 17.76 0.326157 15.5964C-0.108719 11.8781 -0.108719 8.12186 0.326157 4.4036C0.57821 2.23995 2.31667 0.545072 4.46736 0.304797ZM15.3033 2.05974C11.7673 1.66781 8.19885 1.66781 4.66288 2.05974C4.0083 2.13236 3.39731 2.42354 2.92863 2.88624C2.45995 3.34893 2.16095 3.95612 2.07993 4.60972C1.66103 8.19142 1.66103 11.8097 2.07993 15.3914C2.1612 16.0448 2.46031 16.6517 2.92897 17.1142C3.39763 17.5767 4.00847 17.8677 4.66288 17.9402C8.16924 18.3313 11.7969 18.3313 15.3033 17.9402C15.9575 17.8674 16.568 17.5763 17.0365 17.1139C17.5049 16.6514 17.8038 16.0446 17.885 15.3914C18.3039 11.8097 18.3039 8.19142 17.885 4.60972C17.8036 3.95673 17.5045 3.35021 17.0361 2.88801C16.5677 2.42581 15.9573 2.13486 15.3033 2.0621V2.05974Z" fill="#A6AAAD"/>
</svg>
