<svg width="20" height="20" viewBox="0 0 20 20" fill="none" xmlns="http://www.w3.org/2000/svg">
<path d="M10 0C11.3132 0 12.6136 0.258658 13.8268 0.761205C15.0401 1.26375 16.1425 2.00035 17.0711 2.92893C17.9997 3.85752 18.7362 4.95991 19.2388 6.17317C19.7413 7.38642 20 8.68678 20 10C20 12.6522 18.9464 15.1957 17.0711 17.0711C15.1957 18.9464 12.6522 20 10 20C8.68678 20 7.38642 19.7413 6.17317 19.2388C4.95991 18.7362 3.85752 17.9997 2.92893 17.0711C1.05357 15.1957 0 12.6522 0 10C0 7.34784 1.05357 4.8043 2.92893 2.92893C4.8043 1.05357 7.34784 0 10 0ZM10 2C7.87827 2 5.84344 2.84285 4.34315 4.34315C2.84285 5.84344 2 7.87827 2 10C2 12.09 2.8 14 4.11 15.41L7.88 7.88L15.41 4.11C13.9383 2.74804 12.0052 1.99412 10 2ZM10 18C12.1217 18 14.1566 17.1571 15.6569 15.6569C17.1571 14.1566 18 12.1217 18 10C18 7.91 17.2 6 15.89 4.59L12.12 12.12L4.59 15.89C6.06175 17.252 7.99477 18.0059 10 18ZM10 10L9.23 9.23L7.7 12.3L10.77 10.77L10 10ZM10 15.5H11V17H10V15.5ZM13.88 13.89L14.59 13.18L15.65 14.24L14.94 14.95L13.88 13.89ZM15.5 10V9H17V10H15.5ZM10 4.5H9V3H10V4.5ZM6.12 6.11L5.41 6.82L4.35 5.76L5.06 5.05L6.12 6.11ZM4.5 10V11H3V10H4.5Z" fill="#A6AAAD"/>
</svg>
