<svg width="17" height="22" viewBox="0 0 17 22" fill="none" xmlns="http://www.w3.org/2000/svg">
<path d="M4.21429 7.6132H3.14286C2.57454 7.6132 2.02949 7.84733 1.62763 8.26407C1.22576 8.68082 1 9.24605 1 9.83542V18.7243C1 19.3137 1.22576 19.8789 1.62763 20.2957C2.02949 20.7124 2.57454 20.9465 3.14286 20.9465H13.8571C14.4255 20.9465 14.9705 20.7124 15.3724 20.2957C15.7742 19.8789 16 19.3137 16 18.7243V9.83542C16 9.24605 15.7742 8.68082 15.3724 8.26407C14.9705 7.84733 14.4255 7.6132 13.8571 7.6132H12.7857M8.5 13.1688V0.946533M8.5 0.946533L5.28571 4.27987M8.5 0.946533L11.7143 4.27987" stroke="#A6AAAD" stroke-width="1.5" stroke-linecap="round" stroke-linejoin="round"/>
</svg>
